<svg width="219" height="70" viewBox="0 0 219 70" fill="none" xmlns="http://www.w3.org/2000/svg">
<path d="M52.9991 12.9468C52.9991 11.8305 52.9991 11.2724 52.6664 10.9256C52.3338 10.5788 51.7984 10.5788 50.7277 10.5788H11.3569V15.3149H50.7277C51.7984 15.3149 52.3338 15.3149 52.6664 14.9681C52.9991 14.6213 52.9991 14.0631 52.9991 12.9468Z" fill="#CFC5B4"/>
<path d="M52.9991 58.729C52.9991 57.6127 52.9991 57.0546 52.6664 56.7078C52.3338 56.361 51.7984 56.361 50.7277 56.361H9.08556V61.0971H50.7277C51.7984 61.0971 52.3338 61.0971 52.6664 60.7503C52.9991 60.4035 52.9991 59.8453 52.9991 58.729Z" fill="#CFC5B4"/>
<path d="M0 51.6249C0 56.8562 4.06774 61.0971 9.08556 61.0971V56.361C6.57665 56.361 4.54278 54.2406 4.54278 51.6249C4.54278 49.0092 6.57665 46.8888 9.08556 46.8888H12.1141V42.1527H9.08556C4.06774 42.1527 0 46.3936 0 51.6249Z" fill="#CFC5B4"/>
<path d="M11.3579 9.00006H38.6146C40.0422 9.00006 40.7561 9.00006 41.1996 9.46245C41.6431 9.92484 41.6431 10.669 41.6431 12.1575V13.7361C41.6431 15.2246 41.6431 15.9688 41.1996 16.4312C40.7561 16.8935 40.0422 16.8935 38.6146 16.8935H11.3579C9.26716 16.8935 7.57227 18.6606 7.57227 20.8403C7.57227 23.02 9.26716 24.787 11.3579 24.787H41.6431C47.9154 24.787 53.0001 30.0881 53.0001 36.6272C53.0001 43.1664 47.9154 48.4675 41.6431 48.4675H12.1151C10.6874 48.4675 9.97356 48.4675 9.53004 48.0051C9.08653 47.5427 9.08653 46.7985 9.08653 45.3101V45.3101V43.7314V43.7313C9.08653 42.243 9.08653 41.4988 9.53004 41.0364C9.97356 40.574 10.6874 40.574 12.1151 40.574H41.6431C43.7339 40.574 45.4288 38.807 45.4288 36.6272C45.4288 34.4475 43.7339 32.6805 41.6431 32.6805H11.3579C5.08565 32.6805 0.000976562 27.3795 0.000976562 20.8403C0.000976562 14.3011 5.08565 9.00006 11.3579 9.00006Z" fill="#ECC142"/>
<path d="M75.776 27.351C79.637 27.351 82.31 25.029 82.31 21.519C82.31 18.846 80.987 17.415 76.964 15.876C74.129 14.769 73.211 14.067 73.211 12.825C73.211 11.664 74.237 10.773 75.587 10.773C76.856 10.773 77.963 11.529 78.611 12.933L81.419 11.205C80.231 8.937 78.233 7.776 75.695 7.776C72.185 7.776 69.836 9.855 69.836 12.906C69.836 15.633 71.24 17.064 75.182 18.603C77.963 19.71 78.935 20.52 78.935 21.816C78.935 23.409 77.72 24.354 75.83 24.354C73.643 24.354 72.158 23.085 71.915 20.844L68.567 21.681C69.107 25.11 72.023 27.351 75.776 27.351ZM87.9979 24.273L94.4239 16.011V13.689H84.0559V16.416H90.4549L83.7319 24.84V27H94.4509V24.273H87.9979ZM98.1219 32.508H101.632L109.192 13.689H105.628L102.226 22.923L98.8509 13.689H95.2869L100.498 26.649L98.1219 32.508ZM118.045 13.419C116.533 13.419 115.048 14.04 114.211 15.039V8.181H110.971V27H114.211V25.677C115.129 26.811 116.614 27.27 118.045 27.27C121.663 27.27 123.661 24.327 123.661 20.331C123.661 15.984 121.312 13.419 118.045 13.419ZM117.262 24.273C114.913 24.273 113.914 22.572 113.914 20.358C113.914 18.144 114.913 16.362 117.235 16.362C119.395 16.362 120.421 17.874 120.421 20.358C120.421 22.815 119.422 24.273 117.262 24.273ZM126.448 27H129.688V23.112L131.74 20.844L135.628 27H139.489L133.954 18.846L138.922 13.689H134.575L129.688 19.089V8.181H126.448V27ZM146.054 13.419C143.624 13.419 141.653 14.364 140.06 16.281L142.409 18.252C143.381 16.956 144.65 16.254 146 16.254C147.539 16.254 148.511 17.145 148.511 18.603V18.981H145.19C143.678 18.981 142.544 19.17 141.653 19.575C140.357 20.169 139.655 21.357 139.655 22.923C139.655 25.461 141.653 27.27 144.461 27.27C146.216 27.27 147.728 26.514 148.511 25.272L148.781 27H151.751V18.603C151.751 15.39 149.564 13.419 146.054 13.419ZM144.974 24.516C143.678 24.516 142.895 23.922 142.895 22.977C142.895 22.491 143.084 22.113 143.435 21.87C143.867 21.546 144.515 21.411 145.622 21.411H148.511C148.511 23.139 146.918 24.516 144.974 24.516ZM84.767 48.419C83.039 48.419 81.5 49.04 80.474 51.038C79.664 48.986 78.044 48.419 76.586 48.419C75.263 48.419 73.886 48.878 73.022 50.363V48.689H69.89L69.917 62H73.157V56.924C73.157 54.251 73.076 51.254 75.803 51.254C77.909 51.254 78.044 53.441 78.044 54.494V62H81.284V56.924C81.284 54.251 81.176 51.254 83.903 51.254C86.036 51.254 86.171 53.441 86.171 54.494V62H89.411V53.522C89.411 50.849 87.98 48.419 84.767 48.419ZM98.0128 48.419C95.5828 48.419 93.6118 49.364 92.0188 51.281L94.3678 53.252C95.3398 51.956 96.6088 51.254 97.9588 51.254C99.4978 51.254 100.47 52.145 100.47 53.603V53.981H97.1488C95.6368 53.981 94.5028 54.17 93.6118 54.575C92.3158 55.169 91.6138 56.357 91.6138 57.923C91.6138 60.461 93.6118 62.27 96.4198 62.27C98.1748 62.27 99.6868 61.514 100.47 60.272L100.74 62H103.71V53.603C103.71 50.39 101.523 48.419 98.0128 48.419ZM96.9328 59.516C95.6368 59.516 94.8538 58.922 94.8538 57.977C94.8538 57.491 95.0428 57.113 95.3938 56.87C95.8258 56.546 96.4738 56.411 97.5808 56.411H100.47C100.47 58.139 98.8768 59.516 96.9328 59.516ZM114.142 51.254V48.689H110.821V43.721L107.581 46.124V48.689H105.421V51.254H107.581V58.274C107.581 61.109 109.471 62.27 111.712 62.27C112.522 62.27 113.332 62.135 114.142 61.865V59.273C113.548 59.462 112.981 59.57 112.522 59.57C111.469 59.57 110.821 59.084 110.821 58.031V51.254H114.142ZM128.19 55.169C128.19 51.47 126.192 48.419 122.061 48.419C117.633 48.419 115.743 51.929 115.743 55.412C115.743 58.976 117.687 62.27 122.277 62.27C124.518 62.27 126.273 61.487 127.731 59.867L125.49 57.896C124.572 58.949 123.492 59.327 122.304 59.327C120.198 59.327 119.118 58.166 118.983 56.411H128.109C128.163 55.979 128.19 55.574 128.19 55.169ZM118.956 53.846C119.145 52.523 120.063 51.119 122.034 51.119C123.735 51.119 125.031 52.145 125.085 53.846H118.956ZM145.728 48.419C144 48.419 142.461 49.04 141.435 51.038C140.625 48.986 139.005 48.419 137.547 48.419C136.224 48.419 134.847 48.878 133.983 50.363V48.689H130.851L130.878 62H134.118V56.924C134.118 54.251 134.037 51.254 136.764 51.254C138.87 51.254 139.005 53.441 139.005 54.494V62H142.245V56.924C142.245 54.251 142.137 51.254 144.864 51.254C146.997 51.254 147.132 53.441 147.132 54.494V62H150.372V53.522C150.372 50.849 148.941 48.419 145.728 48.419ZM158.974 48.419C156.544 48.419 154.573 49.364 152.98 51.281L155.329 53.252C156.301 51.956 157.57 51.254 158.92 51.254C160.459 51.254 161.431 52.145 161.431 53.603V53.981H158.11C156.598 53.981 155.464 54.17 154.573 54.575C153.277 55.169 152.575 56.357 152.575 57.923C152.575 60.461 154.573 62.27 157.381 62.27C159.136 62.27 160.648 61.514 161.431 60.272L161.701 62H164.671V53.603C164.671 50.39 162.484 48.419 158.974 48.419ZM157.894 59.516C156.598 59.516 155.815 58.922 155.815 57.977C155.815 57.491 156.004 57.113 156.355 56.87C156.787 56.546 157.435 56.411 158.542 56.411H161.431C161.431 58.139 159.838 59.516 157.894 59.516ZM175.103 51.254V48.689H171.782V43.721L168.542 46.124V48.689H166.382V51.254H168.542V58.274C168.542 61.109 170.432 62.27 172.673 62.27C173.483 62.27 174.293 62.135 175.103 61.865V59.273C174.509 59.462 173.942 59.57 173.483 59.57C172.43 59.57 171.782 59.084 171.782 58.031V51.254H175.103ZM179.043 67.508H182.553L190.113 48.689H186.549L183.147 57.923L179.772 48.689H176.208L181.419 61.649L179.043 67.508ZM191.892 62H195.132V58.112L197.184 55.844L201.072 62H204.933L199.398 53.846L204.366 48.689H200.019L195.132 54.089V43.181H191.892V62ZM211.497 48.419C209.067 48.419 207.096 49.364 205.503 51.281L207.852 53.252C208.824 51.956 210.093 51.254 211.443 51.254C212.982 51.254 213.954 52.145 213.954 53.603V53.981H210.633C209.121 53.981 207.987 54.17 207.096 54.575C205.8 55.169 205.098 56.357 205.098 57.923C205.098 60.461 207.096 62.27 209.904 62.27C211.659 62.27 213.171 61.514 213.954 60.272L214.224 62H217.194V53.603C217.194 50.39 215.007 48.419 211.497 48.419ZM210.417 59.516C209.121 59.516 208.338 58.922 208.338 57.977C208.338 57.491 208.527 57.113 208.878 56.87C209.31 56.546 209.958 56.411 211.065 56.411H213.954C213.954 58.139 212.361 59.516 210.417 59.516Z" fill="#CFC5B4"/>
</svg>
